<svg width="32" height="32" viewBox="0 0 32 32" fill="none" xmlns="http://www.w3.org/2000/svg">
<path d="M9.33333 14.6667H12V17.3334H9.33333V14.6667ZM28 8.00008V26.6667C28 28.1334 26.8 29.3334 25.3333 29.3334H6.66667C5.95942 29.3334 5.28115 29.0525 4.78105 28.5524C4.28095 28.0523 4 27.374 4 26.6667L4.01333 8.00008C4.01333 6.53341 5.18667 5.33341 6.66667 5.33341H8V2.66675H10.6667V5.33341H21.3333V2.66675H24V5.33341H25.3333C26.8 5.33341 28 6.53341 28 8.00008ZM6.66667 10.6667H25.3333V8.00008H6.66667V10.6667ZM25.3333 26.6667V13.3334H6.66667V26.6667H25.3333ZM20 17.3334H22.6667V14.6667H20V17.3334ZM14.6667 17.3334H17.3333V14.6667H14.6667V17.3334Z" fill="white"/>
</svg>
