<svg width="32" height="32" viewBox="0 0 32 32" fill="none" xmlns="http://www.w3.org/2000/svg">
<path d="M16.0002 16.0001C14.5335 16.0001 13.3335 14.8001 13.3335 13.3334C13.3335 11.8667 14.5335 10.6667 16.0002 10.6667C17.4668 10.6667 18.6668 11.8667 18.6668 13.3334C18.6668 14.8001 17.4668 16.0001 16.0002 16.0001ZM24.0002 13.6001C24.0002 8.76008 20.4668 5.33341 16.0002 5.33341C11.5335 5.33341 8.00016 8.76008 8.00016 13.6001C8.00016 16.7201 10.6002 20.8534 16.0002 25.7867C21.4002 20.8534 24.0002 16.7201 24.0002 13.6001ZM16.0002 2.66675C21.6002 2.66675 26.6668 6.96008 26.6668 13.6001C26.6668 18.0267 23.1068 23.2667 16.0002 29.3334C8.8935 23.2667 5.3335 18.0267 5.3335 13.6001C5.3335 6.96008 10.4002 2.66675 16.0002 2.66675Z" fill="white"/>
</svg>
